<?xml version="1.0" encoding="iso-8859-1"?>
<!-- Generator: Adobe Illustrator 16.0.0, SVG Export Plug-In . SVG Version: 6.00 Build 0)  -->
<!DOCTYPE svg PUBLIC "-//W3C//DTD SVG 1.1//EN" "http://www.w3.org/Graphics/SVG/1.1/DTD/svg11.dtd">
<svg version="1.1" id="Capa_1" xmlns="http://www.w3.org/2000/svg" xmlns:xlink="http://www.w3.org/1999/xlink" x="0px" y="0px"
	 width="558.851px" height="558.851px" viewBox="0 0 558.851 558.851" style="enable-background:new 0 0 558.851 558.851;"
	 xml:space="preserve">
<g>
	<path d="M358.447,266.504l-19.192-5.901l18.27-8.68c37.321-17.304,55.467-43.707,55.467-80.706c0-10.666-1.773-20.912-5.255-30.452
		c-3.481-9.525-8.623-18.368-15.273-26.279c-6.673-7.923-14.451-14.564-23.104-19.718c-10.243-6.207-21.977-10.454-34.933-12.652
		c-13.536-2.27-29.797-3.426-48.327-3.426h-14.54V18.891C271.559,8.449,263.103,0,252.668,0c-10.436,0-18.891,8.449-18.891,18.891
		v59.805h-65.47c-15.034,0-25.792,3.124-31.96,9.292s-9.294,17.105-9.294,32.509v300.539c0,15.108,3.08,26.008,9.15,32.367
		c5.97,6.266,16.771,9.434,32.098,9.434h65.471v77.124c0,10.438,8.456,18.891,18.891,18.891c10.432,0,18.896-8.452,18.896-18.891
		v-77.124h7.17c20.652,0,38.934-1.028,54.338-3.073c15.061-1.975,28.52-5.426,40.004-10.226
		c17.791-7.826,32.231-20.18,42.782-36.671c10.586-16.55,15.946-35.452,15.946-56.199
		C431.799,311.722,407.802,282.227,358.447,266.504z M323.195,134.52c17.318,7.989,26.102,23.927,26.102,47.331
		c0,10.84-2.66,20.814-7.92,29.645c-6.608,12.179-16.545,20.762-29.395,25.215c-10.22,3.547-23.52,5.521-40.424,6.029V124.291
		C293.688,125.417,310.741,128.757,323.195,134.52z M180.615,123.83h53.162v119.055h-53.162V123.83z M180.615,417.702V285.288
		h53.162v132.414H180.615z M275.457,417.702h-3.898V285.288h1.167c29.994,0,52.16,4.871,67.776,14.884
		c16.515,10.58,24.884,27.567,24.884,50.502C365.386,381.256,349.787,417.702,275.457,417.702z"/>
</g>
<g>
</g>
<g>
</g>
<g>
</g>
<g>
</g>
<g>
</g>
<g>
</g>
<g>
</g>
<g>
</g>
<g>
</g>
<g>
</g>
<g>
</g>
<g>
</g>
<g>
</g>
<g>
</g>
<g>
</g>
</svg>
