<svg data-name="Layer 1" xmlns="http://www.w3.org/2000/svg" viewBox="0 0 187.14 187.18"><ellipse data-name="Ellipse 7" cx="93.57" cy="93.59" rx="93.57" ry="93.59" fill="#fff"/><path data-name="Path 14" d="M114.39 36.17a69.6 69.6 0 01-3.93 8c-2.14 4.29-4.36 8.53-6.57 12.78q-4.34 8.32-8.68 16.63c-.21.4-.37.83-.55 1.24-.57 1.27-.57 1.27.88 1.27h35.5c.14.47-.16.72-.34 1q-4.6 6.71-9.23 13.38-5.82 8.4-11.66 16.78l-12.8 18.38-14.28 20.58c-.21.31-.34.71-.81.73l5.73-19.27a9.19 9.19 0 00.19-.94 20.39 20.39 0 00.93-3.09q3.87-12.94 7.73-25.89c.37-1.24.35-1.25-1-1.25H64.77c-2.45 0-4.89 0-7.34.05-1 0-.57-.63-.41-1 1.45-3.79 2.92-7.57 4.37-11.35l15.33-39.7c1-2.55 2-5.08 2.93-7.64a1.08 1.08 0 011.22-.82h21.1a22 22 0 004.37.11 40.58 40.58 0 005.73-.11h.82a2.53 2.53 0 001.25.11z" fill="#3caea3"/></svg>