<svg data-name="Layer 1" xmlns="http://www.w3.org/2000/svg" viewBox="0 0 196.71 196.76"><ellipse data-name="Ellipse 3" cx="98.36" cy="98.38" rx="98.36" ry="98.38" fill="#fff"/><path data-name="Path 10" d="M120.24 38.02a74.29 74.29 0 01-4.13 8.4c-2.25 4.51-4.59 9-6.91 13.43q-4.56 8.76-9.13 17.48c-.22.42-.38.87-.58 1.31-.59 1.33-.6 1.33.93 1.33h37.29c.15.49-.16.75-.35 1l-9.7 14.06q-6.12 8.83-12.26 17.64l-13.45 19.32q-7.51 10.82-15 21.64c-.22.32-.36.75-.86.77l6-20.26c.09-.31.13-.65.2-1a22.07 22.07 0 001-3.25q4.06-13.62 8.12-27.22c.39-1.31.37-1.32-1-1.32H68.08c-2.57 0-5.15 0-7.72.06-1.07 0-.59-.67-.43-1.1 1.52-4 3.07-8 4.6-11.93l16.11-41.73c1-2.68 2.09-5.34 3.08-8a1.12 1.12 0 011.28-.86c7.14 0 14.26 0 21.41.05.26 0 .49 0 .77-.06a22.83 22.83 0 004.6.11 41.73 41.73 0 006-.11h.93a2.54 2.54 0 001.31.11z" fill="#ed553b"/></svg>