<svg data-name="Layer 1" xmlns="http://www.w3.org/2000/svg" viewBox="0 0 206.46 206.51"><ellipse data-name="Ellipse 8" cx="103.23" cy="103.26" rx="103.23" ry="103.26" fill="#fff"/><path data-name="Path 15" d="M127.81 99.34a58.18 58.18 0 014.37 4.65 22.92 22.92 0 015.12 13.59 30 30 0 01-.27 7.92 28.79 28.79 0 01-14.88 19.87 38 38 0 01-11.16 4.14c-1.46.28-1.82.95-1.79 2.36.1 4.23 0 8.46.07 12.69 0 1.15-.3 1.58-1.52 1.54q-6.25-.09-12.51 0c-1.25 0-1.65-.33-1.63-1.61.08-4 0-8 .05-12 0-1.07-.36-1.58-1.41-1.62a68.11 68.11 0 01-21.95-4.79c-3.72-1.93-3.67-1.92-2.52-6.19s2.18-8.38 3.21-12.59c.29-1.2.57-1.7 2-1a53.71 53.71 0 0013.45 4.91c.82.18 1.67.23 2.5.34a35.36 35.36 0 0012.88.72 15.84 15.84 0 007.29-2.43 7.89 7.89 0 003.87-7.89 8.42 8.42 0 00-4.35-7.1 26.6 26.6 0 00-10.12-5 79.57 79.57 0 01-19.53-9.06 24.89 24.89 0 01-10.84-16 26.61 26.61 0 0110.43-26.28 39.6 39.6 0 0114.82-6.55c1.07-.23 1-.84 1-1.58 0-4 .05-8 0-12 0-1.32.33-1.75 1.69-1.71 4.13.08 8.24.06 12.35 0 1.17 0 1.55.31 1.55 1.51-.07 3.55 0 7.11 0 10.66 0 1.21.19 1.72 1.62 1.82a60.77 60.77 0 0119.2 4.1c2.35 1 2.36 1 1.73 3.41-1.21 4.69-2.44 9.36-3.62 14.05-.31 1.28-.76 1.48-2 .92a48.31 48.31 0 00-24.1-4.65 12.55 12.55 0 00-8.74 3.43 7.19 7.19 0 000 10.17 7.31 7.31 0 00.59.52 41.79 41.79 0 0012.6 6.71 94.63 94.63 0 0117.21 7.75z" fill="#f6d55c"/></svg>