<svg data-name="Layer 1" xmlns="http://www.w3.org/2000/svg" viewBox="0 0 207.68 207.73"><ellipse data-name="Ellipse 6" cx="103.84" cy="103.87" rx="103.84" ry="103.87" fill="#fff"/><path data-name="Path 13" d="M128.57 94.73a62.61 62.61 0 014.4 4.67 23.1 23.1 0 015.17 13.69 29.82 29.82 0 01-.28 7.95 28.92 28.92 0 01-15 20 38.21 38.21 0 01-11.23 4.12c-1.47.28-1.83 1-1.8 2.38.1 4.25 0 8.5.07 12.76 0 1.15-.3 1.58-1.52 1.55q-6.3-.09-12.59 0c-1.26 0-1.67-.33-1.64-1.62.08-4 0-8 .05-12.07 0-1.08-.36-1.59-1.42-1.63a68.33 68.33 0 01-22.06-4.8c-3.74-1.94-3.69-1.93-2.54-6.23s2.2-8.43 3.23-12.66c.3-1.2.57-1.71 2-1a53.43 53.43 0 0013.53 4.94c.82.19 1.67.24 2.51.35a35.74 35.74 0 0013 .72 15.82 15.82 0 007.33-2.45 7.92 7.92 0 003.9-7.93 8.49 8.49 0 00-4.38-7.15 26.71 26.71 0 00-10.17-5 80.56 80.56 0 01-19.65-9.12 25 25 0 01-10.9-16.1 26.78 26.78 0 0110.46-26.37 39.74 39.74 0 0114.91-6.58c1.08-.24 1-.85 1-1.59 0-4 .05-8.06 0-12.08 0-1.33.33-1.76 1.71-1.73 4.15.09 8.28.07 12.41 0 1.18 0 1.56.31 1.56 1.53-.07 3.57 0 7.14 0 10.71 0 1.22.19 1.73 1.64 1.84a61.24 61.24 0 0119.31 4.12c2.36 1 2.37 1 1.73 3.44-1.21 4.71-2.45 9.41-3.63 14.13-.32 1.29-.77 1.48-2 .92a48.62 48.62 0 00-24.28-4.71 12.63 12.63 0 00-8.79 3.45 7.24 7.24 0 000 10.23c.19.19.39.36.59.53a42.2 42.2 0 0012.68 6.75 95 95 0 0117.26 7.77z" fill="#173f5f"/></svg>